<svg width="482.1688598632812px" height="107.6px" xmlns="http://www.w3.org/2000/svg" viewBox="8.915570068359386 21.200000000000003 482.1688598632812 107.6" style="background: rgba(0, 0, 0, 0);" preserveAspectRatio="xMidYMid"><defs><linearGradient id="editing-rainbow-gradient" x1="0" x2="1" y1="0.5" y2="0.5" gradientUnits="objectBoundingBox"><stop offset="0.00" stop-color="#f00"></stop><stop offset="0.17" stop-color="#f90"></stop><stop offset="0.34" stop-color="#ff4"></stop><stop offset="0.51" stop-color="#9f0"></stop><stop offset="0.68" stop-color="#09f"></stop><stop offset="0.85" stop-color="#00f"></stop><stop offset="1.00" stop-color="#90f"></stop></linearGradient><filter id="editing-rainbow" x="-100%" y="-100%" width="300%" height="300%"><feMorphology operator="dilate" radius="1,2" in="SourceGraphic" result="dilate"></feMorphology><feColorMatrix in="dilate" result="color" type="matrix" values="0.7 0 0 0 0  0 0.7 0 0 0  0 0 0.7 0 0  0 0 0 1 0"></feColorMatrix><feOffset dy="2" result="offset"></feOffset><feGaussianBlur stdDeviation="3"></feGaussianBlur><feOffset dy="3"></feOffset><feColorMatrix result="blur" type="matrix" values="0.7 0 0 0 0  0 0.7 0 0 0  0 0 0.7 0 0  0 0 0 1 0"></feColorMatrix><feMerge><feMergeNode in="blur"></feMergeNode><feMergeNode in="offset"></feMergeNode><feMergeNode in="SourceGraphic"></feMergeNode></feMerge></filter></defs><g filter="url(#editing-rainbow)"><g transform="translate(-16.95466148853302, 107.19000434875488)"><path d="M10.44 0L0.87 0L11.31-57.42L30.02-57.42L43.59-17.92L50.81-57.42L60.47-57.33L49.85 0L29.93 0L17.40-38.02L10.44 0ZM90.57-3.65L90.57-3.65L90.57-3.65Q86.39 1.74 76.04 1.74L76.04 1.74L76.04 1.74Q70.64 1.74 66.73-1.52L66.73-1.52L66.73-1.52Q62.81-4.79 62.81-9.48L62.81-9.48L62.81-9.48Q62.81-12.09 63.08-13.40L63.08-13.40L68.90-44.37L86.57-46.11L80.21-12.53L80.21-12.53Q79.87-10.61 79.87-9.48L79.87-9.48L79.87-9.48Q79.87-4.44 82.91-4.44L82.91-4.44L82.91-4.44Q86.30-4.44 88.74-9.05L88.74-9.05L88.74-9.05Q89.52-10.53 89.87-12.44L89.87-12.44L96.05-44.37L113.19-46.11L106.75-12.18L106.75-12.18Q106.49-10.88 106.49-9.48L106.49-9.48L106.49-9.48Q106.49-8.09 107.27-6.57L107.27-6.57L107.27-6.57Q108.05-5.05 110.58-4.70L110.58-4.70L110.58-4.70Q110.06-2.61 108.23-1.22L108.23-1.22L108.23-1.22Q104.40 1.74 100.27 1.74L100.27 1.74L100.27 1.74Q96.14 1.74 93.70 0.26L93.70 0.26L93.70 0.26Q91.26-1.22 90.57-3.65ZM134.63 0.87L134.63 0.87L134.63 0.87Q130.50 0 128.37-0.39L128.37-0.39L128.37-0.39Q126.24-0.78 123.76-0.78L123.76-0.78L123.76-0.78Q121.28-0.78 118.84 0.09L118.84 0.09L118.84 0.09Q117.54-0.70 116.71-2.26L116.71-2.26L116.71-2.26Q115.88-3.83 115.88-6.26L115.88-6.26L115.88-6.26Q115.88-11.40 121.10-15.31L121.10-15.31L143.20-31.23L143.20-31.23Q137.03-32.97 131.41-32.97L131.41-32.97L131.41-32.97Q125.80-32.97 123.80-29.15L123.80-29.15L123.80-29.15Q120.84-32.63 120.84-38.11L120.84-38.11L120.84-38.11Q120.84-41.76 123.50-44.15L123.50-44.15L123.50-44.15Q126.15-46.55 131.72-46.55L131.72-46.55L131.72-46.55Q134.85-46.55 137.68-46.15L137.68-46.15L137.68-46.15Q140.50-45.76 143.03-45.41L143.03-45.41L147.73-44.72L147.73-44.72Q149.99-44.37 152.29-44.37L152.29-44.37L152.29-44.37Q154.60-44.37 156.34-45.33L156.34-45.33L156.34-45.33Q158.60-43.24 158.60-40.37L158.60-40.37L158.60-40.37Q158.60-35.84 153.03-31.15L153.03-31.15L131.02-14.70L131.02-14.70Q137.81-12.70 141.29-12.70L141.29-12.70L141.29-12.70Q148.60-12.70 151.73-16.18L151.73-16.18L151.73-16.18Q154.16-13.40 154.16-8.57L154.16-8.57L154.16-8.57Q154.16-3.74 151.03-1.00L151.03-1.00L151.03-1.00Q147.90 1.74 142.25 1.74L142.25 1.74L142.25 1.74Q138.77 1.74 134.63 0.87ZM189.66-3.65L189.66-3.65L189.66-3.65Q185.48 1.74 175.13 1.74L175.13 1.74L175.13 1.74Q169.74 1.74 165.82-1.52L165.82-1.52L165.82-1.52Q161.91-4.79 161.91-9.48L161.91-9.48L161.91-9.48Q161.91-12.09 162.17-13.40L162.17-13.40L168.00-44.37L185.66-46.11L179.31-12.53L179.31-12.53Q178.96-10.61 178.96-9.48L178.96-9.48L178.96-9.48Q178.96-4.44 182.00-4.44L182.00-4.44L182.00-4.44Q185.40-4.44 187.83-9.05L187.83-9.05L187.83-9.05Q188.62-10.53 188.96-12.44L188.96-12.44L195.14-44.37L212.28-46.11L205.84-12.18L205.84-12.18Q205.58-10.88 205.58-9.48L205.58-9.48L205.58-9.48Q205.58-8.09 206.36-6.57L206.36-6.57L206.36-6.57Q207.15-5.05 209.67-4.70L209.67-4.70L209.67-4.70Q209.15-2.61 207.32-1.22L207.32-1.22L207.32-1.22Q203.49 1.74 199.36 1.74L199.36 1.74L199.36 1.74Q195.23 1.74 192.79 0.26L192.79 0.26L192.79 0.26Q190.36-1.22 189.66-3.65ZM237.77-4.79L237.77-4.79L237.77-4.79Q235.07 1.74 226.46 1.74L226.46 1.74L226.46 1.74Q222.11 1.74 219.33-1.31L219.33-1.31L219.33-1.31Q217.07-3.83 217.07-6.70L217.07-6.70L217.07-6.70Q217.07-13.22 220.11-27.49L220.11-27.49L226.46-60.90L244.12-62.64L235.68-18.62L235.68-18.62Q234.20-12.18 234.20-9.92L234.20-9.92L234.20-9.92Q234.20-4.96 237.77-4.79ZM248.95-2.61L248.95-2.61L248.95-2.61Q246.91-4.87 245.99-8.44L245.99-8.44L245.99-8.44Q245.08-12.01 245.08-17.84L245.08-17.84L245.08-17.84Q245.08-23.66 247.08-28.97L247.08-28.97L247.08-28.97Q249.08-34.28 252.74-38.11L252.74-38.11L252.74-38.11Q260.22-46.11 272.57-46.11L272.57-46.11L272.57-46.11Q277.01-46.11 280.23-44.63L280.23-44.63L295.10-46.11L288.67-12.18L288.67-12.18Q288.41-11.14 288.41-9.22L288.41-9.22L288.41-9.22Q288.41-7.31 289.58-6.09L289.58-6.09L289.58-6.09Q290.75-4.87 292.49-4.70L292.49-4.70L292.49-4.70Q291.62-1.74 288.45 0L288.45 0L288.45 0Q285.27 1.74 281.71 1.74L281.71 1.74L281.71 1.74Q278.14 1.74 275.75 0.39L275.75 0.39L275.75 0.39Q273.35-0.96 272.66-3.22L272.66-3.22L272.66-3.22Q271.27-1.04 268.31 0.35L268.31 0.35L268.31 0.35Q265.35 1.74 261.39 1.74L261.39 1.74L261.39 1.74Q257.43 1.74 254.21 0.70L254.21 0.70L254.21 0.70Q251.00-0.35 248.95-2.61ZM267.31-37.93L267.31-37.93L267.31-37.93Q266.31-36.37 265.44-33.71L265.44-33.71L265.44-33.71Q264.57-31.06 263.13-23.97L263.13-23.97L263.13-23.97Q261.70-16.88 261.70-11.83L261.70-11.83L261.70-11.83Q261.70-6.79 262.48-5.31L262.48-5.31L262.48-5.31Q263.26-3.83 264.65-3.83L264.65-3.83L264.65-3.83Q267.44-3.83 269.48-6.48L269.48-6.48L269.48-6.48Q271.53-9.14 272.31-13.83L272.31-13.83L276.92-39.32L276.92-39.32Q275.09-40.89 272.96-40.89L272.96-40.89L272.96-40.89Q270.83-40.89 269.57-40.19L269.57-40.19L269.57-40.19Q268.31-39.50 267.31-37.93ZM362.44 1.74L362.44 1.74L362.44 1.74Q351.92 1.74 351.92-6.44L351.92-6.44L351.92-6.44Q351.92-10.01 353.44-16.92L353.44-16.92L353.44-16.92Q354.96-23.84 355.48-26.62L355.48-26.62L355.48-26.62Q356.70-32.97 356.70-34.97L356.70-34.97L356.70-34.97Q356.70-39.41 353.39-39.41L353.39-39.41L353.39-39.41Q351.22-39.41 349.13-36.41L349.13-36.41L349.13-36.41Q347.04-33.41 346.09-27.41L346.09-27.41L340.69 0L323.73 1.74L328.43-21.92L328.43-21.92Q329.21-25.84 329.90-30.28L329.90-30.28L329.90-30.28Q330.60-34.71 330.60-35.41L330.60-35.41L330.60-35.41Q330.60-39.41 327.64-39.41L327.64-39.41L327.64-39.41Q325.64-39.41 323.47-36.45L323.47-36.45L323.47-36.45Q321.29-33.50 320.07-27.41L320.07-27.41L314.77 0L297.63 1.74L306.76-44.37L320.94-46.11L319.46-37.32L319.46-37.32Q321.73-42.02 325.90-44.07L325.90-44.07L325.90-44.07Q330.08-46.11 336.60-46.11L336.60-46.11L336.60-46.11Q340.34-46.11 342.78-44.28L342.78-44.28L342.78-44.28Q345.22-42.46 346.00-39.50L346.00-39.50L346.00-39.50Q347.48-42.54 351.26-44.33L351.26-44.33L351.26-44.33Q355.05-46.11 359.70-46.11L359.70-46.11L359.70-46.11Q364.36-46.11 366.66-45.11L366.66-45.11L366.66-45.11Q368.97-44.11 370.36-42.46L370.36-42.46L370.36-42.46Q372.71-39.41 372.71-33.84L372.71-33.84L372.71-33.84Q372.71-28.36 370.36-16.96L370.36-16.96L370.36-16.96Q369.14-11.40 369.14-9.35L369.14-9.35L369.14-9.35Q369.14-7.31 370.32-6.09L370.32-6.09L370.32-6.09Q371.49-4.87 373.23-4.70L373.23-4.70L373.23-4.70Q372.36-1.74 369.36 0L369.36 0L369.36 0Q366.36 1.74 362.44 1.74ZM377.32-5.13L377.32-5.13L377.32-5.13Q377.32-8.44 379.89-10.27L379.89-10.27L379.89-10.27Q382.45-12.09 386.11-12.09L386.11-12.09L386.11-12.09Q389.76-12.09 391.98-10.27L391.98-10.27L391.98-10.27Q394.20-8.44 394.20-5.13L394.20-5.13L394.20-5.13Q394.20-1.83 391.72-0.04L391.72-0.04L391.72-0.04Q389.24 1.74 385.58 1.74L385.58 1.74L385.58 1.74Q381.93 1.74 379.62-0.04L379.62-0.04L379.62-0.04Q377.32-1.83 377.32-5.13ZM439.09 1.74L439.09 1.74L439.09 1.74Q428.56 1.74 428.56-6.44L428.56-6.44L428.56-6.44Q428.65-8.70 429.35-12.53L429.35-12.53L430.91-20.53L430.91-20.53Q433.26-31.84 433.26-34.37L433.26-34.37L433.26-34.37Q433.26-39.41 430.30-39.41L430.30-39.41L430.30-39.41Q425.34-39.41 422.73-26.45L422.73-26.45L417.60 0L400.11 1.74L409.16-44.46L423.43-46.11L422.04-37.58L422.04-37.58Q426.13-46.11 438.65-46.11L438.65-46.11L438.65-46.11Q444.74-46.11 447.31-43.54L447.31-43.54L447.31-43.54Q449.88-40.98 449.88-35.24L449.88-35.24L449.88-35.24Q449.88-29.84 447.09-17.23L447.09-17.23L447.09-17.23Q445.79-11.57 445.79-9.44L445.79-9.44L445.79-9.44Q445.79-7.31 446.96-6.09L446.96-6.09L446.96-6.09Q448.14-4.87 449.88-4.70L449.88-4.70L449.88-4.70Q449.01-1.74 446.01 0L446.01 0L446.01 0Q443.00 1.74 439.09 1.74ZM492.07-14.70L492.07-14.70L492.07-14.70Q494.25-13.22 494.25-9.96L494.25-9.96L494.25-9.96Q494.25-6.70 492.59-4.61L492.59-4.61L492.59-4.61Q490.94-2.52 488.24-1.13L488.24-1.13L488.24-1.13Q482.68 1.74 476.67 1.74L476.67 1.74L476.67 1.74Q470.67 1.74 467.15 0.44L467.15 0.44L467.15 0.44Q463.62-0.87 461.27-3.31L461.27-3.31L461.27-3.31Q456.66-7.92 456.66-16.36L456.66-16.36L456.66-16.36Q456.66-29.49 463.80-37.50L463.80-37.50L463.80-37.50Q471.45-46.11 484.76-46.11L484.76-46.11L484.76-46.11Q493.03-46.11 497.12-42.63L497.12-42.63L497.12-42.63Q500.16-40.02 500.16-35.76L500.16-35.76L500.16-35.76Q500.16-20.45 473.72-20.45L473.72-20.45L473.72-20.45Q473.37-18.18 473.37-16.27L473.37-16.27L473.37-16.27Q473.37-12.27 475.15-10.74L475.15-10.74L475.15-10.74Q476.93-9.22 480.24-9.22L480.24-9.22L480.24-9.22Q483.55-9.22 487.07-10.74L487.07-10.74L487.07-10.74Q490.59-12.27 492.07-14.70ZM474.32-24.19L474.32-24.19L474.32-24.19Q480.50-24.19 484.07-28.01L484.07-28.01L484.07-28.01Q487.64-31.67 487.64-37.50L487.64-37.50L487.64-37.50Q487.64-39.50 486.90-40.59L486.90-40.59L486.90-40.59Q486.16-41.67 484.68-41.67L484.68-41.67L484.68-41.67Q483.20-41.67 481.94-41.11L481.94-41.11L481.94-41.11Q480.68-40.54 479.37-38.63L479.37-38.63L479.37-38.63Q476.15-34.28 474.32-24.19ZM504.51-8.70L504.51-8.70L504.51-8.70Q504.51-11.05 505.73-16.96L505.73-16.96L510.34-40.46L505.21-40.46L505.56-43.07L505.56-43.07Q516.00-46.20 526.09-53.85L526.09-53.85L530.27-53.85L528.18-44.37L534.96-44.37L534.18-40.46L527.48-40.46L523.04-16.96L523.04-16.96Q521.91-11.57 521.91-9.74L521.91-9.74L521.91-9.74Q521.91-5.57 525.57-4.70L525.57-4.70L525.57-4.70Q524.70-1.74 521.57 0L521.57 0L521.57 0Q518.43 1.74 514.00 1.74L514.00 1.74L514.00 1.74Q509.56 1.74 507.04-1.04L507.04-1.04L507.04-1.04Q504.51-3.83 504.51-8.70Z" fill="url(#editing-rainbow-gradient)"></path></g></g><style>text {
  font-size: 64px;
  font-family: Arial Black;
  dominant-baseline: central;
  text-anchor: middle;
}</style></svg>