<svg width="1083.8631347656249px" height="221px" xmlns="http://www.w3.org/2000/svg" viewBox="-291.93156738281243 -35.5 1083.8631347656249 221" style="background: rgba(0, 0, 0, 0);" preserveAspectRatio="xMidYMid"><defs><linearGradient id="editing-rainbow-gradient" x1="0" x2="1" y1="0.5" y2="0.5" gradientUnits="objectBoundingBox"><stop offset="0.00" stop-color="#f00"></stop><stop offset="0.17" stop-color="#f90"></stop><stop offset="0.34" stop-color="#ff4"></stop><stop offset="0.51" stop-color="#9f0"></stop><stop offset="0.68" stop-color="#09f"></stop><stop offset="0.85" stop-color="#00f"></stop><stop offset="1.00" stop-color="#90f"></stop></linearGradient><filter id="editing-rainbow" x="-100%" y="-100%" width="300%" height="300%"><feMorphology operator="dilate" radius="1,0" in="SourceGraphic" result="dilate"></feMorphology><feColorMatrix in="dilate" result="color" type="matrix" values="0.7 0 0 0 0  0 0.7 0 0 0  0 0 0.7 0 0  0 0 0 1 0"></feColorMatrix><feOffset dy="0" result="offset"></feOffset><feGaussianBlur stdDeviation="3"></feGaussianBlur><feOffset dy="3"></feOffset><feColorMatrix result="blur" type="matrix" values="0.7 0 0 0 0  0 0.7 0 0 0  0 0 0.7 0 0  0 0 0 1 0"></feColorMatrix><feMerge><feMergeNode in="blur"></feMergeNode><feMergeNode in="offset"></feMergeNode><feMergeNode in="SourceGraphic"></feMergeNode></feMerge></filter></defs><g filter="url(#editing-rainbow)"><g transform="translate(-362.9392395019531, 149.00000381469727)"><path d="M24 0L2 0L26-132L69-132L100.20-41.20L116.80-132L139-131.80L114.60 0L68.80 0L40-87.40L24 0ZM208.20-8.40L208.20-8.40L208.20-8.40Q198.60 4 174.80 4L174.80 4L174.80 4Q162.40 4 153.40-3.50L153.40-3.50L153.40-3.50Q144.40-11 144.40-21.80L144.40-21.80L144.40-21.80Q144.40-27.80 145-30.80L145-30.80L158.40-102L199-106L184.40-28.80L184.40-28.80Q183.60-24.40 183.60-21.80L183.60-21.80L183.60-21.80Q183.60-10.20 190.60-10.20L190.60-10.20L190.60-10.20Q198.40-10.20 204-20.80L204-20.80L204-20.80Q205.80-24.20 206.60-28.60L206.60-28.60L220.80-102L260.20-106L245.40-28L245.40-28Q244.80-25 244.80-21.80L244.80-21.80L244.80-21.80Q244.80-18.60 246.60-15.10L246.60-15.10L246.60-15.10Q248.40-11.60 254.20-10.80L254.20-10.80L254.20-10.80Q253-6 248.80-2.80L248.80-2.80L248.80-2.80Q240 4 230.50 4L230.50 4L230.50 4Q221 4 215.40 0.60L215.40 0.60L215.40 0.60Q209.80-2.80 208.20-8.40ZM309.50 2L309.50 2L309.50 2Q300 0 295.10-0.90L295.10-0.90L295.10-0.90Q290.20-1.80 284.50-1.80L284.50-1.80L284.50-1.80Q278.80-1.80 273.20 0.20L273.20 0.20L273.20 0.20Q270.20-1.60 268.30-5.20L268.30-5.20L268.30-5.20Q266.40-8.80 266.40-14.40L266.40-14.40L266.40-14.40Q266.40-26.20 278.40-35.20L278.40-35.20L329.20-71.80L329.20-71.80Q315-75.80 302.10-75.80L302.10-75.80L302.10-75.80Q289.20-75.80 284.60-67L284.60-67L284.60-67Q277.80-75 277.80-87.60L277.80-87.60L277.80-87.60Q277.80-96 283.90-101.50L283.90-101.50L283.90-101.50Q290-107 302.80-107L302.80-107L302.80-107Q310-107 316.50-106.10L316.50-106.10L316.50-106.10Q323-105.20 328.80-104.40L328.80-104.40L339.60-102.80L339.60-102.80Q344.80-102 350.10-102L350.10-102L350.10-102Q355.40-102 359.40-104.20L359.40-104.20L359.40-104.20Q364.60-99.40 364.60-92.80L364.60-92.80L364.60-92.80Q364.60-82.40 351.80-71.60L351.80-71.60L301.20-33.80L301.20-33.80Q316.80-29.20 324.80-29.20L324.80-29.20L324.80-29.20Q341.60-29.20 348.80-37.20L348.80-37.20L348.80-37.20Q354.40-30.80 354.40-19.70L354.40-19.70L354.40-19.70Q354.40-8.60 347.20-2.30L347.20-2.30L347.20-2.30Q340 4 327 4L327 4L327 4Q319 4 309.50 2ZM436.00-8.40L436.00-8.40L436.00-8.40Q426.40 4 402.60 4L402.60 4L402.60 4Q390.20 4 381.20-3.50L381.20-3.50L381.20-3.50Q372.20-11 372.20-21.80L372.20-21.80L372.20-21.80Q372.20-27.80 372.80-30.80L372.80-30.80L386.20-102L426.80-106L412.20-28.80L412.20-28.80Q411.40-24.40 411.40-21.80L411.40-21.80L411.40-21.80Q411.40-10.20 418.40-10.20L418.40-10.20L418.40-10.20Q426.20-10.20 431.80-20.80L431.80-20.80L431.80-20.80Q433.60-24.20 434.40-28.60L434.40-28.60L448.60-102L488.00-106L473.20-28L473.20-28Q472.60-25 472.60-21.80L472.60-21.80L472.60-21.80Q472.60-18.60 474.40-15.10L474.40-15.10L474.40-15.10Q476.20-11.60 482.00-10.80L482.00-10.80L482.00-10.80Q480.80-6 476.60-2.80L476.60-2.80L476.60-2.80Q467.80 4 458.30 4L458.30 4L458.30 4Q448.80 4 443.20 0.60L443.20 0.60L443.20 0.60Q437.60-2.80 436.00-8.40ZM546.60-11L546.60-11L546.60-11Q540.40 4 520.60 4L520.60 4L520.60 4Q510.60 4 504.20-3L504.20-3L504.20-3Q499.00-8.80 499.00-15.40L499.00-15.40L499.00-15.40Q499.00-30.40 506.00-63.20L506.00-63.20L520.60-140L561.20-144L541.80-42.80L541.80-42.80Q538.40-28 538.40-22.80L538.40-22.80L538.40-22.80Q538.40-11.40 546.60-11ZM572.30-6L572.30-6L572.30-6Q567.60-11.20 565.50-19.40L565.50-19.40L565.50-19.40Q563.40-27.60 563.40-41L563.40-41L563.40-41Q563.40-54.40 568-66.60L568-66.60L568-66.60Q572.60-78.80 581-87.60L581-87.60L581-87.60Q598.20-106 626.60-106L626.60-106L626.60-106Q636.80-106 644.20-102.60L644.20-102.60L678.40-106L663.60-28L663.60-28Q663-25.60 663-21.20L663-21.20L663-21.20Q663-16.80 665.70-14L665.70-14L665.70-14Q668.40-11.20 672.40-10.80L672.40-10.80L672.40-10.80Q670.40-4 663.10 0L663.10 0L663.10 0Q655.80 4 647.60 4L647.60 4L647.60 4Q639.40 4 633.90 0.90L633.90 0.90L633.90 0.90Q628.40-2.20 626.80-7.40L626.80-7.40L626.80-7.40Q623.60-2.40 616.80 0.80L616.80 0.80L616.80 0.80Q610 4 600.90 4L600.90 4L600.90 4Q591.80 4 584.40 1.60L584.40 1.60L584.40 1.60Q577-0.80 572.30-6ZM614.50-87.20L614.50-87.20L614.50-87.20Q612.20-83.60 610.20-77.50L610.20-77.50L610.20-77.50Q608.20-71.40 604.90-55.10L604.90-55.10L604.90-55.10Q601.60-38.80 601.60-27.20L601.60-27.20L601.60-27.20Q601.60-15.60 603.40-12.20L603.40-12.20L603.40-12.20Q605.20-8.80 608.40-8.80L608.40-8.80L608.40-8.80Q614.80-8.80 619.50-14.90L619.50-14.90L619.50-14.90Q624.20-21 626-31.80L626-31.80L636.60-90.40L636.60-90.40Q632.40-94 627.50-94L627.50-94L627.50-94Q622.60-94 619.70-92.40L619.70-92.40L619.70-92.40Q616.80-90.80 614.50-87.20ZM833.20 4L833.20 4L833.20 4Q809.00 4 809.00-14.80L809.00-14.80L809.00-14.80Q809.00-23 812.50-38.90L812.50-38.90L812.50-38.90Q816.00-54.80 817.20-61.20L817.20-61.20L817.20-61.20Q820.00-75.80 820.00-80.40L820.00-80.40L820.00-80.40Q820.00-90.60 812.40-90.60L812.40-90.60L812.40-90.60Q807.40-90.60 802.60-83.70L802.60-83.70L802.60-83.70Q797.80-76.80 795.60-63L795.60-63L783.20 0L744.20 4L755.00-50.40L755.00-50.40Q756.80-59.40 758.40-69.60L758.40-69.60L758.40-69.60Q760.00-79.80 760.00-81.40L760.00-81.40L760.00-81.40Q760.00-90.60 753.20-90.60L753.20-90.60L753.20-90.60Q748.60-90.60 743.60-83.80L743.60-83.80L743.60-83.80Q738.60-77 735.80-63L735.80-63L723.60 0L684.20 4L705.20-102L737.80-106L734.40-85.80L734.40-85.80Q739.60-96.60 749.20-101.30L749.20-101.30L749.20-101.30Q758.80-106 773.80-106L773.80-106L773.80-106Q782.40-106 788.00-101.80L788.00-101.80L788.00-101.80Q793.60-97.60 795.40-90.80L795.40-90.80L795.40-90.80Q798.80-97.80 807.50-101.90L807.50-101.90L807.50-101.90Q816.20-106 826.90-106L826.90-106L826.90-106Q837.60-106 842.90-103.70L842.90-103.70L842.90-103.70Q848.20-101.40 851.40-97.60L851.40-97.60L851.40-97.60Q856.80-90.60 856.80-77.80L856.80-77.80L856.80-77.80Q856.80-65.20 851.40-39L851.40-39L851.40-39Q848.60-26.20 848.60-21.50L848.60-21.50L848.60-21.50Q848.60-16.80 851.30-14L851.30-14L851.30-14Q854.00-11.20 858.00-10.80L858.00-10.80L858.00-10.80Q856.00-4 849.10 0L849.10 0L849.10 0Q842.20 4 833.20 4ZM867.40-11.80L867.40-11.80L867.40-11.80Q867.40-19.40 873.30-23.60L873.30-23.60L873.30-23.60Q879.20-27.80 887.60-27.80L887.60-27.80L887.60-27.80Q896.00-27.80 901.10-23.60L901.10-23.60L901.10-23.60Q906.20-19.40 906.20-11.80L906.20-11.80L906.20-11.80Q906.20-4.20 900.50-0.10L900.50-0.10L900.50-0.10Q894.80 4 886.40 4L886.40 4L886.40 4Q878.00 4 872.70-0.10L872.70-0.10L872.70-0.10Q867.40-4.20 867.40-11.80ZM1009.40 4L1009.40 4L1009.40 4Q985.20 4 985.20-14.80L985.20-14.80L985.20-14.80Q985.40-20 987.00-28.80L987.00-28.80L990.60-47.20L990.60-47.20Q996.00-73.20 996.00-79L996.00-79L996.00-79Q996.00-90.60 989.20-90.60L989.20-90.60L989.20-90.60Q977.80-90.60 971.80-60.80L971.80-60.80L960.00 0L919.80 4L940.60-102.20L973.40-106L970.20-86.40L970.20-86.40Q979.60-106 1008.40-106L1008.40-106L1008.40-106Q1022.40-106 1028.30-100.10L1028.30-100.10L1028.30-100.10Q1034.20-94.20 1034.20-81L1034.20-81L1034.20-81Q1034.20-68.60 1027.80-39.60L1027.80-39.60L1027.80-39.60Q1024.80-26.60 1024.80-21.70L1024.80-21.70L1024.80-21.70Q1024.80-16.80 1027.50-14L1027.50-14L1027.50-14Q1030.20-11.20 1034.20-10.80L1034.20-10.80L1034.20-10.80Q1032.20-4 1025.30 0L1025.30 0L1025.30 0Q1018.40 4 1009.40 4ZM1131.20-33.80L1131.20-33.80L1131.20-33.80Q1136.20-30.40 1136.20-22.90L1136.20-22.90L1136.20-22.90Q1136.20-15.40 1132.40-10.60L1132.40-10.60L1132.40-10.60Q1128.60-5.80 1122.40-2.60L1122.40-2.60L1122.40-2.60Q1109.60 4 1095.80 4L1095.80 4L1095.80 4Q1082.00 4 1073.90 1L1073.90 1L1073.90 1Q1065.80-2 1060.40-7.60L1060.40-7.60L1060.40-7.60Q1049.80-18.20 1049.80-37.60L1049.80-37.60L1049.80-37.60Q1049.80-67.80 1066.20-86.20L1066.20-86.20L1066.20-86.20Q1083.80-106 1114.40-106L1114.40-106L1114.40-106Q1133.40-106 1142.80-98L1142.80-98L1142.80-98Q1149.80-92 1149.80-82.20L1149.80-82.20L1149.80-82.20Q1149.80-47 1089.00-47L1089.00-47L1089.00-47Q1088.20-41.80 1088.20-37.40L1088.20-37.40L1088.20-37.40Q1088.20-28.20 1092.30-24.70L1092.30-24.70L1092.30-24.70Q1096.40-21.20 1104.00-21.20L1104.00-21.20L1104.00-21.20Q1111.60-21.20 1119.70-24.70L1119.70-24.70L1119.70-24.70Q1127.80-28.20 1131.20-33.80ZM1090.40-55.60L1090.40-55.60L1090.40-55.60Q1104.60-55.60 1112.80-64.40L1112.80-64.40L1112.80-64.40Q1121.00-72.80 1121.00-86.20L1121.00-86.20L1121.00-86.20Q1121.00-90.80 1119.30-93.30L1119.30-93.30L1119.30-93.30Q1117.60-95.80 1114.20-95.80L1114.20-95.80L1114.20-95.80Q1110.80-95.80 1107.90-94.50L1107.90-94.50L1107.90-94.50Q1105.00-93.20 1102.00-88.80L1102.00-88.80L1102.00-88.80Q1094.60-78.80 1090.40-55.60ZM1159.80-20L1159.80-20L1159.80-20Q1159.80-25.40 1162.60-39L1162.60-39L1173.20-93L1161.40-93L1162.20-99L1162.20-99Q1186.20-106.20 1209.40-123.80L1209.40-123.80L1219.00-123.80L1214.20-102L1229.80-102L1228.00-93L1212.60-93L1202.40-39L1202.40-39Q1199.80-26.60 1199.80-22.40L1199.80-22.40L1199.80-22.40Q1199.80-12.80 1208.20-10.80L1208.20-10.80L1208.20-10.80Q1206.20-4 1199.00 0L1199.00 0L1199.00 0Q1191.80 4 1181.60 4L1181.60 4L1181.60 4Q1171.40 4 1165.60-2.40L1165.60-2.40L1165.60-2.40Q1159.80-8.80 1159.80-20Z" fill="url(#editing-rainbow-gradient)"></path></g></g><style>text {
  font-size: 64px;
  font-family: Arial Black;
  dominant-baseline: central;
  text-anchor: middle;
}</style></svg>